<mxfile host="app.diagrams.net" modified="2024-03-22T15:48:37.625Z" agent="Mozilla/5.0 (Windows NT 10.0; Win64; x64) AppleWebKit/537.36 (KHTML, like Gecko) Chrome/122.0.0.0 Safari/537.36" etag="Hu7_DcDHWBi1vkclrI8b" version="24.0.8" type="github">
  <diagram id="yYxodml36QbaJqeOO-uj" name="PÃ¡gina-2">
    <mxGraphModel dx="712" dy="770" grid="1" gridSize="10" guides="1" tooltips="1" connect="1" arrows="1" fold="1" page="1" pageScale="1" pageWidth="827" pageHeight="1169" math="0" shadow="0">
      <root>
        <mxCell id="0" />
        <mxCell id="1" parent="0" />
      </root>
    </mxGraphModel>
  </diagram>
</mxfile>
